<svg version="1.1" xmlns="http://www.w3.org/2000/svg" xmlns:xlink="http://www.w3.org/1999/xlink" stroke-linecap="round" stroke-linejoin="round" stroke-width="0" fill-rule="evenodd" clip-rule="evenodd" fill="currentColor" stroke="currentColor" viewBox="19.34913 -17.66303 14.731930000000002 2.1274999999999995" width="14.731930000000002in" height="2.1274999999999995in"><path stroke-width="0.001" fill="none" d="M19.71504 -15.74803L19.71507 -15.74803M19.71004 -17.64803L19.71007 -17.64803M19.68504 -15.76803L19.68507 -15.76803M20.78504 -15.79303L20.78507 -15.79303"></path><path stroke-width="0.01" fill="none" d="M20.05624 -15.80488L20.13624 -15.80488M20.09624 -15.76488L20.09624 -15.84488M20.11624 -15.8577L20.11624 -15.82488M20.11624 -15.8577L20.13102 -15.8577M20.11624 -15.84207L20.12534 -15.84207M20.11624 -15.82488L20.13102 -15.82488M20.05624 -15.83638L20.13624 -15.83638M20.09624 -15.79638L20.09624 -15.87638M20.11624 -15.88919L20.11624 -15.85638M20.11624 -15.88919L20.13102 -15.88919M20.11624 -15.87357L20.12534 -15.87357M20.11624 -15.85638L20.13102 -15.85638M20.08443 -15.80488A0.01181 0.01181 0 0 0 20.10806 -15.80488L20.10806 -15.83638A0.01182 0.01182 0 0 0 20.08443 -15.83638L20.08443 -15.80488M20.33183 -15.80488L20.41183 -15.80488M20.37183 -15.76488L20.37183 -15.84488M20.39183 -15.8577L20.39183 -15.82488M20.39183 -15.8577L20.40661 -15.8577M20.39183 -15.84207L20.40093 -15.84207M20.39183 -15.82488L20.40661 -15.82488M20.33183 -15.83638L20.41183 -15.83638M20.37183 -15.79638L20.37183 -15.87638M20.39183 -15.88919L20.39183 -15.85638M20.39183 -15.88919L20.40661 -15.88919M20.39183 -15.87357L20.40093 -15.87357M20.39183 -15.85638L20.40661 -15.85638M20.36002 -15.80488A0.01181 0.01181 0 0 0 20.38365 -15.80488L20.38365 -15.83638A0.01182 0.01182 0 0 0 20.36002 -15.83638L20.36002 -15.80488M20.05624 -15.95055L20.13624 -15.95055M20.09624 -15.91055L20.09624 -15.99055M20.11624 -16.00337L20.11624 -15.97055M20.11624 -16.00337L20.13102 -16.00337M20.11624 -15.98774L20.12534 -15.98774M20.11624 -15.97055L20.13102 -15.97055M20.05624 -15.98205L20.13624 -15.98205M20.09624 -15.94205L20.09624 -16.02205M20.11624 -16.03486L20.11624 -16.00205M20.11624 -16.03486L20.13102 -16.03486M20.11624 -16.01924L20.12534 -16.01924M20.11624 -16.00205L20.13102 -16.00205M20.08443 -15.95055A0.01181 0.01181 0 0 0 20.10806 -15.95055L20.10806 -15.98205A0.01182 0.01182 0 0 0 20.08443 -15.98205L20.08443 -15.95055M20.33183 -15.95055L20.41183 -15.95055M20.37183 -15.91055L20.37183 -15.99055M20.39183 -16.00337L20.39183 -15.97055M20.39183 -16.00337L20.40661 -16.00337M20.39183 -15.98774L20.40093 -15.98774M20.39183 -15.97055L20.40661 -15.97055M20.33183 -15.98205L20.41183 -15.98205M20.37183 -15.94205L20.37183 -16.02205M20.39183 -16.03486L20.39183 -16.00205M20.39183 -16.03486L20.40661 -16.03486M20.39183 -16.01924L20.40093 -16.01924M20.39183 -16.00205L20.40661 -16.00205M20.36002 -15.95055A0.01181 0.01181 0 0 0 20.38365 -15.95055L20.38365 -15.98205A0.01182 0.01182 0 0 0 20.36002 -15.98205L20.36002 -15.95055M20.1153 -15.90568L20.1953 -15.90568M20.1553 -15.86568L20.1553 -15.94568M20.19234 -15.95068L20.19121 -15.95381L20.18894 -15.95693L20.18666 -15.9585L20.18212 -15.9585L20.17984 -15.95693L20.17757 -15.95381L20.17644 -15.95068L20.1753 -15.946L20.1753 -15.93818L20.17644 -15.9335L20.17757 -15.93037L20.17984 -15.92725L20.18212 -15.92568L20.18666 -15.92568L20.18894 -15.92725L20.19121 -15.93037L20.19234 -15.9335M20.27278 -15.90568L20.35278 -15.90568M20.31278 -15.86568L20.31278 -15.94568M20.34982 -15.95068L20.34869 -15.95381L20.34642 -15.95693L20.34414 -15.9585L20.3396 -15.9585L20.33732 -15.95693L20.33505 -15.95381L20.33392 -15.95068L20.33278 -15.946L20.33278 -15.93818L20.33392 -15.9335L20.33505 -15.93037L20.33732 -15.92725L20.3396 -15.92568L20.34414 -15.92568L20.34642 -15.92725L20.34869 -15.93037L20.34982 -15.9335M19.69404 -17.59883L19.77404 -17.59883M19.73404 -17.55883L19.73404 -17.63883M19.75404 -17.65164L19.75404 -17.61883M19.75404 -17.65164L19.76881 -17.65164M19.75404 -17.63602L19.76313 -17.63602M19.69404 -17.49883L19.77404 -17.49883M19.73404 -17.45883L19.73404 -17.53883M19.75404 -17.55164L19.75404 -17.51883M19.75404 -17.55164L19.76881 -17.55164M19.75404 -17.53602L19.76313 -17.53602M19.69404 -17.39883L19.77404 -17.39883M19.73404 -17.35883L19.73404 -17.43883M19.75404 -17.45164L19.75404 -17.41883M19.75404 -17.45164L19.76881 -17.45164M19.75404 -17.43602L19.76313 -17.43602M19.69404 -17.29883L19.77404 -17.29883M19.73404 -17.25883L19.73404 -17.33883M19.75404 -17.35164L19.75404 -17.31883M19.75404 -17.35164L19.76881 -17.35164M19.75404 -17.33602L19.76313 -17.33602M19.69404 -17.19883L19.77404 -17.19883M19.73404 -17.15883L19.73404 -17.23883M19.75404 -17.25164L19.75404 -17.21883M19.75404 -17.25164L19.76881 -17.25164M19.75404 -17.23602L19.76313 -17.23602M19.69404 -17.09883L19.77404 -17.09883M19.73404 -17.05883L19.73404 -17.13883M19.75404 -17.15164L19.75404 -17.11883M19.75404 -17.15164L19.76881 -17.15164M19.75404 -17.13602L19.76313 -17.13602M19.69404 -16.99883L19.77404 -16.99883M19.73404 -16.95883L19.73404 -17.03883M19.75404 -17.05164L19.75404 -17.01883M19.75404 -17.05164L19.76881 -17.05164M19.75404 -17.03602L19.76313 -17.03602M19.69404 -16.89883L19.77404 -16.89883M19.73404 -16.85883L19.73404 -16.93883M19.75404 -16.95164L19.75404 -16.91883M19.75404 -16.95164L19.76881 -16.95164M19.75404 -16.93602L19.76313 -16.93602M19.69404 -16.79883L19.77404 -16.79883M19.73404 -16.75883L19.73404 -16.83883M19.75404 -16.85164L19.75404 -16.81883M19.75404 -16.85164L19.76881 -16.85164M19.75404 -16.83602L19.76313 -16.83602M19.69404 -16.69883L19.77404 -16.69883M19.73404 -16.65883L19.73404 -16.73883M19.75404 -16.75164L19.75404 -16.71883M19.75404 -16.75164L19.76881 -16.75164M19.75404 -16.73602L19.76313 -16.73602M19.69404 -16.59883L19.77404 -16.59883M19.73404 -16.55883L19.73404 -16.63883M19.75404 -16.65164L19.75404 -16.61883M19.75404 -16.65164L19.76881 -16.65164M19.75404 -16.63602L19.76313 -16.63602M19.69404 -16.49883L19.77404 -16.49883M19.73404 -16.45883L19.73404 -16.53883M19.75404 -16.55164L19.75404 -16.51883M19.75404 -16.55164L19.76881 -16.55164M19.75404 -16.53602L19.76313 -16.53602M19.69404 -16.39883L19.77404 -16.39883M19.73404 -16.35883L19.73404 -16.43883M19.75404 -16.45164L19.75404 -16.41883M19.75404 -16.45164L19.76881 -16.45164M19.75404 -16.43602L19.76313 -16.43602M19.69404 -16.29883L19.77404 -16.29883M19.73404 -16.25883L19.73404 -16.33883M19.75404 -16.35164L19.75404 -16.31883M19.75404 -16.35164L19.76881 -16.35164M19.75404 -16.33602L19.76313 -16.33602M19.69404 -16.19883L19.77404 -16.19883M19.73404 -16.15883L19.73404 -16.23883M19.75404 -16.25164L19.75404 -16.21883M19.75404 -16.25164L19.76881 -16.25164M19.75404 -16.23602L19.76313 -16.23602M19.69404 -16.09883L19.77404 -16.09883M19.73404 -16.05883L19.73404 -16.13883M19.75404 -16.15164L19.75404 -16.11883M19.75404 -16.15164L19.76881 -16.15164M19.75404 -16.13602L19.76313 -16.13602M19.69404 -15.99883L19.77404 -15.99883M19.73404 -15.95883L19.73404 -16.03883M19.75404 -16.05164L19.75404 -16.01883M19.75404 -16.05164L19.76881 -16.05164M19.75404 -16.03602L19.76313 -16.03602M19.69404 -15.89883L19.77404 -15.89883M19.73404 -15.85883L19.73404 -15.93883M19.75404 -15.95164L19.75404 -15.91883M19.75404 -15.95164L19.76881 -15.95164M19.75404 -15.93602L19.76313 -15.93602M19.69404 -15.79883L19.77404 -15.79883M19.73404 -15.75883L19.73404 -15.83883M19.75404 -15.85164L19.75404 -15.81883M19.75404 -15.85164L19.76881 -15.85164M19.75404 -15.83602L19.76313 -15.83602M20.69404 -17.59883L20.77404 -17.59883M20.73404 -17.55883L20.73404 -17.63883M20.75404 -17.65164L20.75404 -17.61883M20.75404 -17.65164L20.76881 -17.65164M20.75404 -17.63602L20.76313 -17.63602M20.69404 -17.49883L20.77404 -17.49883M20.73404 -17.45883L20.73404 -17.53883M20.75404 -17.55164L20.75404 -17.51883M20.75404 -17.55164L20.76881 -17.55164M20.75404 -17.53602L20.76313 -17.53602M20.69404 -17.39883L20.77404 -17.39883M20.73404 -17.35883L20.73404 -17.43883M20.75404 -17.45164L20.75404 -17.41883M20.75404 -17.45164L20.76881 -17.45164M20.75404 -17.43602L20.76313 -17.43602M20.69404 -17.29883L20.77404 -17.29883M20.73404 -17.25883L20.73404 -17.33883M20.75404 -17.35164L20.75404 -17.31883M20.75404 -17.35164L20.76881 -17.35164M20.75404 -17.33602L20.76313 -17.33602M20.69404 -17.19883L20.77404 -17.19883M20.73404 -17.15883L20.73404 -17.23883M20.75404 -17.25164L20.75404 -17.21883M20.75404 -17.25164L20.76881 -17.25164M20.75404 -17.23602L20.76313 -17.23602M20.69404 -17.09883L20.77404 -17.09883M20.73404 -17.05883L20.73404 -17.13883M20.75404 -17.15164L20.75404 -17.11883M20.75404 -17.15164L20.76881 -17.15164M20.75404 -17.13602L20.76313 -17.13602M20.69404 -16.99883L20.77404 -16.99883M20.73404 -16.95883L20.73404 -17.03883M20.75404 -17.05164L20.75404 -17.01883M20.75404 -17.05164L20.76881 -17.05164M20.75404 -17.03602L20.76313 -17.03602M20.69404 -16.89883L20.77404 -16.89883M20.73404 -16.85883L20.73404 -16.93883M20.75404 -16.95164L20.75404 -16.91883M20.75404 -16.95164L20.76881 -16.95164M20.75404 -16.93602L20.76313 -16.93602M20.69404 -16.79883L20.77404 -16.79883M20.73404 -16.75883L20.73404 -16.83883M20.75404 -16.85164L20.75404 -16.81883M20.75404 -16.85164L20.76881 -16.85164M20.75404 -16.83602L20.76313 -16.83602M20.69404 -16.69883L20.77404 -16.69883M20.73404 -16.65883L20.73404 -16.73883M20.75404 -16.75164L20.75404 -16.71883M20.75404 -16.75164L20.76881 -16.75164M20.75404 -16.73602L20.76313 -16.73602M20.69404 -16.59883L20.77404 -16.59883M20.73404 -16.55883L20.73404 -16.63883M20.75404 -16.65164L20.75404 -16.61883M20.75404 -16.65164L20.76881 -16.65164M20.75404 -16.63602L20.76313 -16.63602M20.69404 -16.49883L20.77404 -16.49883M20.73404 -16.45883L20.73404 -16.53883M20.75404 -16.55164L20.75404 -16.51883M20.75404 -16.55164L20.76881 -16.55164M20.75404 -16.53602L20.76313 -16.53602M20.69404 -16.39883L20.77404 -16.39883M20.73404 -16.35883L20.73404 -16.43883M20.75404 -16.45164L20.75404 -16.41883M20.75404 -16.45164L20.76881 -16.45164M20.75404 -16.43602L20.76313 -16.43602M20.69404 -16.29883L20.77404 -16.29883M20.73404 -16.25883L20.73404 -16.33883M20.75404 -16.35164L20.75404 -16.31883M20.75404 -16.35164L20.76881 -16.35164M20.75404 -16.33602L20.76313 -16.33602M20.69404 -16.19883L20.77404 -16.19883M20.73404 -16.15883L20.73404 -16.23883M20.75404 -16.25164L20.75404 -16.21883M20.75404 -16.25164L20.76881 -16.25164M20.75404 -16.23602L20.76313 -16.23602M20.69404 -16.09883L20.77404 -16.09883M20.73404 -16.05883L20.73404 -16.13883M20.75404 -16.15164L20.75404 -16.11883M20.75404 -16.15164L20.76881 -16.15164M20.75404 -16.13602L20.76313 -16.13602M20.69404 -15.99883L20.77404 -15.99883M20.73404 -15.95883L20.73404 -16.03883M20.75404 -16.05164L20.75404 -16.01883M20.75404 -16.05164L20.76881 -16.05164M20.75404 -16.03602L20.76313 -16.03602M20.69404 -15.89883L20.77404 -15.89883M20.73404 -15.85883L20.73404 -15.93883M20.75404 -15.95164L20.75404 -15.91883M20.75404 -15.95164L20.76881 -15.95164M20.75404 -15.93602L20.76313 -15.93602M20.69404 -15.79883L20.77404 -15.79883M20.73404 -15.75883L20.73404 -15.83883M20.75404 -15.85164L20.75404 -15.81883M20.75404 -15.85164L20.76881 -15.85164M20.75404 -15.83602L20.76313 -15.83602M19.75504 -15.78803L19.83504 -15.78803M19.79504 -15.74803L19.79504 -15.82803M19.81504 -15.78803L19.89504 -15.78803M19.85504 -15.74803L19.85504 -15.82803M19.99504 -15.82303L20.07504 -15.82303M20.03504 -15.78303L20.03504 -15.86303M20.07208 -15.86803L20.07095 -15.87116L20.06868 -15.87428L20.0664 -15.87584L20.06186 -15.87584L20.05958 -15.87428L20.05731 -15.87116L20.05618 -15.86803L20.05504 -15.86334L20.05504 -15.85553L20.05618 -15.85084L20.05731 -15.84772L20.05958 -15.84459L20.06186 -15.84303L20.0664 -15.84303L20.06868 -15.84459L20.07095 -15.84772L20.07208 -15.85084L20.07208 -15.85553M20.0664 -15.85553L20.07208 -15.85553M19.95004 -15.78803L20.03004 -15.78803M19.99004 -15.74803L19.99004 -15.82803M20.39504 -15.82303L20.47504 -15.82303M20.43504 -15.78303L20.43504 -15.86303M20.47208 -15.86803L20.47095 -15.87116L20.46868 -15.87428L20.4664 -15.87584L20.46186 -15.87584L20.45958 -15.87428L20.45731 -15.87116L20.45618 -15.86803L20.45504 -15.86334L20.45504 -15.85553L20.45618 -15.85084L20.45731 -15.84772L20.45958 -15.84459L20.46186 -15.84303L20.4664 -15.84303L20.46868 -15.84459L20.47095 -15.84772L20.47208 -15.85084L20.47208 -15.85553M20.4664 -15.85553L20.47208 -15.85553M20.39504 -15.78803L20.47504 -15.78803M20.43504 -15.74803L20.43504 -15.82803M20.45504 -15.78803L20.53504 -15.78803M20.49504 -15.74803L20.49504 -15.82803M20.57004 -15.78803L20.65004 -15.78803M20.61004 -15.74803L20.61004 -15.82803M20.63004 -15.78803L20.71004 -15.78803M20.67004 -15.74803L20.67004 -15.82803M19.75504 -15.91303L19.83504 -15.91303M19.79504 -15.87303L19.79504 -15.95303M19.85504 -15.86303L19.93504 -15.86303M19.89504 -15.82303L19.89504 -15.90303M19.90504 -15.86303L19.98504 -15.86303M19.94504 -15.82303L19.94504 -15.90303M19.98504 -15.93803L20.06504 -15.93803M20.02504 -15.89803L20.02504 -15.97803M20.48504 -15.86303L20.56504 -15.86303M20.52504 -15.82303L20.52504 -15.90303M20.53504 -15.86303L20.61504 -15.86303M20.57504 -15.82303L20.57504 -15.90303M20.63504 -15.90803L20.71504 -15.90803M20.67504 -15.86803L20.67504 -15.94803M19.75504 -16.01303L19.83504 -16.01303M19.79504 -15.97303L19.79504 -16.05303M20.05504 -16.02303L20.13504 -16.02303M20.09504 -15.98303L20.09504 -16.06303M20.13208 -16.06803L20.13095 -16.07116L20.12868 -16.07428L20.1264 -16.07584L20.12186 -16.07584L20.11958 -16.07428L20.11731 -16.07116L20.11618 -16.06803L20.11504 -16.06334L20.11504 -16.05553L20.11618 -16.05084L20.11731 -16.04772L20.11958 -16.04459L20.12186 -16.04303L20.1264 -16.04303L20.12868 -16.04459L20.13095 -16.04772L20.13208 -16.05084L20.13208 -16.05553M20.1264 -16.05553L20.13208 -16.05553M20.01504 -16.01803L20.09504 -16.01803M20.05504 -15.97803L20.05504 -16.05803M20.16845 -16.01046L20.24845 -16.01046M20.20845 -15.97046L20.20845 -16.05046M20.28504 -16.04303L20.36504 -16.04303M20.32504 -16.00303L20.32504 -16.08303M20.25004 -16.00303L20.33004 -16.00303M20.29004 -15.96303L20.29004 -16.04303M20.28004 -16.00303L20.36004 -16.00303M20.32004 -15.96303L20.32004 -16.04303M20.20504 -16.00803L20.28504 -16.00803M20.24504 -15.96803L20.24504 -16.04803M20.33004 -16.02303L20.41004 -16.02303M20.37004 -15.98303L20.37004 -16.06303M20.40708 -16.06803L20.40595 -16.07116L20.40368 -16.07428L20.4014 -16.07584L20.39686 -16.07584L20.39458 -16.07428L20.39231 -16.07116L20.39118 -16.06803L20.39004 -16.06334L20.39004 -16.05553L20.39118 -16.05084L20.39231 -16.04772L20.39458 -16.04459L20.39686 -16.04303L20.4014 -16.04303L20.40368 -16.04459L20.40595 -16.04772L20.40708 -16.05084L20.40708 -16.05553M20.4014 -16.05553L20.40708 -16.05553M20.63504 -16.01303L20.71504 -16.01303M20.67504 -15.97303L20.67504 -16.05303M19.75504 -16.11303L19.83504 -16.11303M19.79504 -16.07303L19.79504 -16.15303M19.96004 -16.13803L20.04004 -16.13803M20.00004 -16.09803L20.00004 -16.17803M19.93004 -16.07803L20.01004 -16.07803M19.97004 -16.03803L19.97004 -16.11803M20.00708 -16.12303L20.00595 -16.12616L20.00368 -16.12928L20.0014 -16.13084L19.99686 -16.13084L19.99458 -16.12928L19.99231 -16.12616L19.99118 -16.12303L19.99004 -16.11834L19.99004 -16.11053L19.99118 -16.10584L19.99231 -16.10272L19.99458 -16.09959L19.99686 -16.09803L20.0014 -16.09803L20.00368 -16.09959L20.00595 -16.10272L20.00708 -16.10584L20.00708 -16.11053M20.0014 -16.11053L20.00708 -16.11053M20.16504 -16.08303L20.24504 -16.08303M20.20504 -16.04303L20.20504 -16.12303M20.28504 -16.11803L20.36504 -16.11803M20.32504 -16.07803L20.32504 -16.15803M20.22004 -16.08303L20.30004 -16.08303M20.26004 -16.04303L20.26004 -16.12303M20.28504 -16.08303L20.36504 -16.08303M20.32504 -16.04303L20.32504 -16.12303M20.31504 -16.13803L20.39504 -16.13803M20.35504 -16.09803L20.35504 -16.17803M20.31504 -16.06803L20.39504 -16.06803M20.35504 -16.02803L20.35504 -16.10803M20.31504 -16.09803L20.39504 -16.09803M20.35504 -16.05803L20.35504 -16.13803M20.35004 -16.04803L20.43004 -16.04803M20.39004 -16.00803L20.39004 -16.08803M20.35504 -16.09303L20.43504 -16.09303M20.39504 -16.05303L20.39504 -16.13303M20.42504 -16.08303L20.50504 -16.08303M20.46504 -16.04303L20.46504 -16.12303M20.40504 -16.04803L20.48504 -16.04803M20.44504 -16.00803L20.44504 -16.08803M20.55004 -16.09803L20.63004 -16.09803M20.59004 -16.05803L20.59004 -16.13803M20.63504 -16.10803L20.71504 -16.10803M20.67504 -16.06803L20.67504 -16.14803M19.75504 -16.21303L19.83504 -16.21303M19.79504 -16.17303L19.79504 -16.25303M19.96004 -16.17303L20.04004 -16.17303M20.00004 -16.13303L20.00004 -16.21303M19.96004 -16.21303L20.04004 -16.21303M20.00004 -16.17303L20.00004 -16.25303M20.06004 -16.17303L20.14004 -16.17303M20.10004 -16.13303L20.10004 -16.21303M20.15004 -16.18303L20.23004 -16.18303M20.19004 -16.14303L20.19004 -16.22303M20.18504 -16.18303L20.26504 -16.18303M20.22504 -16.14303L20.22504 -16.22303M20.15004 -16.21303L20.23004 -16.21303M20.19004 -16.17303L20.19004 -16.25303M20.18504 -16.21303L20.26504 -16.21303M20.22504 -16.17303L20.22504 -16.25303M20.22004 -16.18303L20.30004 -16.18303M20.26004 -16.14303L20.26004 -16.22303M20.25004 -16.18303L20.33004 -16.18303M20.29004 -16.14303L20.29004 -16.22303M20.22004 -16.21303L20.30004 -16.21303M20.26004 -16.17303L20.26004 -16.25303M20.25004 -16.21303L20.33004 -16.21303M20.29004 -16.17303L20.29004 -16.25303M20.39004 -16.23303L20.47004 -16.23303M20.43004 -16.19303L20.43004 -16.27303M20.39004 -16.18803L20.47004 -16.18803M20.43004 -16.14803L20.43004 -16.22803M20.55004 -16.19303L20.63004 -16.19303M20.59004 -16.15303L20.59004 -16.23303M20.63504 -16.20303L20.71504 -16.20303M20.67504 -16.16303L20.67504 -16.24303M19.75504 -16.32803L19.83504 -16.32803M19.79504 -16.28803L19.79504 -16.36803M19.85504 -16.29303L19.93504 -16.29303M19.89504 -16.25303L19.89504 -16.33303M19.85504 -16.32303L19.93504 -16.32303M19.89504 -16.28303L19.89504 -16.36303M19.96004 -16.29303L20.04004 -16.29303M20.00004 -16.25303L20.00004 -16.33303M19.96004 -16.33303L20.04004 -16.33303M20.00004 -16.29303L20.00004 -16.37303M20.06004 -16.28803L20.14004 -16.28803M20.10004 -16.24803L20.10004 -16.32803M20.18504 -16.24803L20.26504 -16.24803M20.22504 -16.20803L20.22504 -16.28803M20.18504 -16.27803L20.26504 -16.27803M20.22504 -16.23803L20.22504 -16.31803M20.15004 -16.27803L20.23004 -16.27803M20.19004 -16.23803L20.19004 -16.31803M20.15004 -16.24803L20.23004 -16.24803M20.19004 -16.20803L20.19004 -16.28803M20.22004 -16.24803L20.30004 -16.24803M20.26004 -16.20803L20.26004 -16.28803M20.25004 -16.24803L20.33004 -16.24803M20.29004 -16.20803L20.29004 -16.28803M20.25004 -16.27803L20.33004 -16.27803M20.29004 -16.23803L20.29004 -16.31803M20.22004 -16.27803L20.30004 -16.27803M20.26004 -16.23803L20.26004 -16.31803M20.32504 -16.28803L20.40504 -16.28803M20.36504 -16.24803L20.36504 -16.32803M20.42004 -16.29303L20.50004 -16.29303M20.46004 -16.25303L20.46004 -16.33303M20.59004 -16.25303L20.67004 -16.25303M20.63004 -16.21303L20.63004 -16.29303M20.63504 -16.30803L20.71504 -16.30803M20.67504 -16.26803L20.67504 -16.34803M19.75504 -16.37303L19.83504 -16.37303M19.79504 -16.33303L19.79504 -16.41303M19.75504 -16.41803L19.83504 -16.41803M19.79504 -16.37803L19.79504 -16.45803M19.79504 -16.35303L19.87504 -16.35303M19.83504 -16.31303L19.83504 -16.39303M19.79504 -16.39803L19.87504 -16.39803M19.83504 -16.35803L19.83504 -16.43803M19.79504 -16.44303L19.87504 -16.44303M19.83504 -16.40303L19.83504 -16.48303M19.94504 -16.43803L20.02504 -16.43803M19.98504 -16.39803L19.98504 -16.47803M19.98504 -16.35803L20.06504 -16.35803M20.02504 -16.31803L20.02504 -16.39803M20.06208 -16.40303L20.06095 -16.40616L20.05868 -16.40928L20.0564 -16.41084L20.05186 -16.41084L20.04958 -16.40928L20.04731 -16.40616L20.04618 -16.40303L20.04504 -16.39834L20.04504 -16.39053L20.04618 -16.38584L20.04731 -16.38272L20.04958 -16.37959L20.05186 -16.37803L20.0564 -16.37803L20.05868 -16.37959L20.06095 -16.38272L20.06208 -16.38584L20.06208 -16.39053M20.0564 -16.39053L20.06208 -16.39053M20.02504 -16.35803L20.10504 -16.35803M20.06504 -16.31803L20.06504 -16.39803M20.10208 -16.40303L20.10095 -16.40616L20.09868 -16.40928L20.0964 -16.41084L20.09186 -16.41084L20.08958 -16.40928L20.08731 -16.40616L20.08618 -16.40303L20.08504 -16.39834L20.08504 -16.39053L20.08618 -16.38584L20.08731 -16.38272L20.08958 -16.37959L20.09186 -16.37803L20.0964 -16.37803L20.09868 -16.37959L20.10095 -16.38272L20.10208 -16.38584L20.10208 -16.39053M20.0964 -16.39053L20.10208 -16.39053M20.06004 -16.35303L20.14004 -16.35303M20.10004 -16.31303L20.10004 -16.39303M20.12004 -16.36303L20.20004 -16.36303M20.16004 -16.32303L20.16004 -16.40303M20.17004 -16.36303L20.25004 -16.36303M20.21004 -16.32303L20.21004 -16.40303M20.20004 -16.36303L20.28004 -16.36303M20.24004 -16.32303L20.24004 -16.40303M20.30004 -16.39803L20.38004 -16.39803M20.34004 -16.35803L20.34004 -16.43803M20.27504 -16.36303L20.35504 -16.36303M20.31504 -16.32303L20.31504 -16.40303M20.23004 -16.36303L20.31004 -16.36303M20.27004 -16.32303L20.27004 -16.40303M20.34504 -16.39803L20.42504 -16.39803M20.38504 -16.35803L20.38504 -16.43803M20.56504 -16.42783L20.64504 -16.42783M20.60504 -16.38783L20.60504 -16.46783M20.59004 -16.35303L20.67004 -16.35303M20.63004 -16.31303L20.63004 -16.39303M20.63504 -16.40803L20.71504 -16.40803M20.67504 -16.36803L20.67504 -16.44803M19.75504 -16.50803L19.83504 -16.50803M19.79504 -16.46803L19.79504 -16.54803M19.84004 -16.47303L19.92004 -16.47303M19.88004 -16.43303L19.88004 -16.51303M19.94504 -16.46803L20.02504 -16.46803M19.98504 -16.42803L19.98504 -16.50803M19.94504 -16.49803L20.02504 -16.49803M19.98504 -16.45803L19.98504 -16.53803M20.01504 -16.49303L20.09504 -16.49303M20.05504 -16.45303L20.05504 -16.53303M20.09208 -16.53803L20.09095 -16.54116L20.08868 -16.54428L20.0864 -16.54584L20.08186 -16.54584L20.07958 -16.54428L20.07731 -16.54116L20.07618 -16.53803L20.07504 -16.53334L20.07504 -16.52553L20.07618 -16.52084L20.07731 -16.51772L20.07958 -16.51459L20.08186 -16.51303L20.0864 -16.51303L20.08868 -16.51459L20.09095 -16.51772L20.09208 -16.52084L20.09208 -16.52553M20.0864 -16.52553L20.09208 -16.52553M20.01504 -16.52803L20.09504 -16.52803M20.05504 -16.48803L20.05504 -16.56803M20.09208 -16.57303L20.09095 -16.57616L20.08868 -16.57928L20.0864 -16.58084L20.08186 -16.58084L20.07958 -16.57928L20.07731 -16.57616L20.07618 -16.57303L20.07504 -16.56834L20.07504 -16.56053L20.07618 -16.55584L20.07731 -16.55272L20.07958 -16.54959L20.08186 -16.54803L20.0864 -16.54803L20.08868 -16.54959L20.09095 -16.55272L20.09208 -16.55584L20.09208 -16.56053M20.0864 -16.56053L20.09208 -16.56053M20.59004 -16.45303L20.67004 -16.45303M20.63004 -16.41303L20.63004 -16.49303M20.63504 -16.50803L20.71504 -16.50803M20.67504 -16.46803L20.67504 -16.54803M19.75504 -16.60803L19.83504 -16.60803M19.79504 -16.56803L19.79504 -16.64803M20.15004 -16.57803L20.23004 -16.57803M20.19004 -16.53803L20.19004 -16.61803M20.15004 -16.61303L20.23004 -16.61303M20.19004 -16.57303L20.19004 -16.65303M20.28004 -16.63303L20.36004 -16.63303M20.32004 -16.59303L20.32004 -16.67303M20.39504 -16.64303L20.47504 -16.64303M20.43504 -16.60303L20.43504 -16.68303M20.63504 -16.60803L20.71504 -16.60803M20.67504 -16.56803L20.67504 -16.64803M19.75504 -16.70303L19.83504 -16.70303M19.79504 -16.66303L19.79504 -16.74303M19.95004 -16.64803L20.03004 -16.64803M19.99004 -16.60803L19.99004 -16.68803M19.92504 -16.74303L20.00504 -16.74303M19.96504 -16.70303L19.96504 -16.78303M19.92504 -16.69303L20.00504 -16.69303M19.96504 -16.65303L19.96504 -16.73303M20.08004 -16.64803L20.16004 -16.64803M20.12004 -16.60803L20.12004 -16.68803M20.04504 -16.64803L20.12504 -16.64803M20.08504 -16.60803L20.08504 -16.68803M20.10504 -16.69303L20.18504 -16.69303M20.14504 -16.65303L20.14504 -16.73303M20.15004 -16.64803L20.23004 -16.64803M20.19004 -16.60803L20.19004 -16.68803M20.11504 -16.64803L20.19504 -16.64803M20.15504 -16.60803L20.15504 -16.68803M20.30004 -16.69303L20.38004 -16.69303M20.34004 -16.65303L20.34004 -16.73303M20.41504 -16.65803L20.49504 -16.65803M20.45504 -16.61803L20.45504 -16.69803M20.44504 -16.69303L20.52504 -16.69303M20.48504 -16.65303L20.48504 -16.73303M20.46504 -16.74303L20.54504 -16.74303M20.50504 -16.70303L20.50504 -16.78303M20.63504 -16.70803L20.71504 -16.70803M20.67504 -16.66803L20.67504 -16.74803M19.92504 -16.79303L20.00504 -16.79303M19.96504 -16.75303L19.96504 -16.83303M19.92504 -16.82303L20.00504 -16.82303M19.96504 -16.78303L19.96504 -16.86303M20.19504 -16.78303L20.27504 -16.78303M20.23504 -16.74303L20.23504 -16.82303M20.47004 -16.79303L20.55004 -16.79303M20.51004 -16.75303L20.51004 -16.83303M20.47004 -16.82303L20.55004 -16.82303M20.51004 -16.78303L20.51004 -16.86303M19.92504 -16.94303L20.00504 -16.94303M19.96504 -16.90303L19.96504 -16.98303M20.47004 -16.94303L20.55004 -16.94303M20.51004 -16.90303L20.51004 -16.98303M20.47004 -16.89303L20.55004 -16.89303M20.51004 -16.85303L20.51004 -16.93303M19.75504 -17.01303L19.83504 -17.01303M19.79504 -16.97303L19.79504 -17.05303M19.92504 -16.99303L20.00504 -16.99303M19.96504 -16.95303L19.96504 -17.03303M19.92504 -17.04303L20.00504 -17.04303M19.96504 -17.00303L19.96504 -17.08303M20.05504 -16.99803L20.13504 -16.99803M20.09504 -16.95803L20.09504 -17.03803M20.16004 -16.99803L20.24004 -16.99803M20.20004 -16.95803L20.20004 -17.03803M20.26004 -16.99803L20.34004 -16.99803M20.30004 -16.95803L20.30004 -17.03803M20.36004 -16.99803L20.44004 -16.99803M20.40004 -16.95803L20.40004 -17.03803M20.47004 -17.04303L20.55004 -17.04303M20.51004 -17.00303L20.51004 -17.08303M20.47004 -16.99303L20.55004 -16.99303M20.51004 -16.95303L20.51004 -17.03303M19.75504 -17.10803L19.83504 -17.10803M19.79504 -17.06803L19.79504 -17.14803M19.92504 -17.14303L20.00504 -17.14303M19.96504 -17.10303L19.96504 -17.18303M19.92504 -17.09303L20.00504 -17.09303M19.96504 -17.05303L19.96504 -17.13303M20.05504 -17.07803L20.13504 -17.07803M20.09504 -17.03803L20.09504 -17.11803M20.16004 -17.07803L20.24004 -17.07803M20.20004 -17.03803L20.20004 -17.11803M20.26004 -17.07803L20.34004 -17.07803M20.30004 -17.03803L20.30004 -17.11803M20.36004 -17.07803L20.44004 -17.07803M20.40004 -17.03803L20.40004 -17.11803M20.47004 -17.09303L20.55004 -17.09303M20.51004 -17.05303L20.51004 -17.13303M20.47004 -17.14303L20.55004 -17.14303M20.51004 -17.10303L20.51004 -17.18303M20.63504 -17.07303L20.71504 -17.07303M20.67504 -17.03303L20.67504 -17.11303M20.63504 -17.11303L20.71504 -17.11303M20.67504 -17.07303L20.67504 -17.15303M19.92504 -17.21303L20.00504 -17.21303M19.96504 -17.17303L19.96504 -17.25303M20.06004 -17.18303L20.14004 -17.18303M20.10004 -17.14303L20.10004 -17.22303M20.06004 -17.23303L20.14004 -17.23303M20.10004 -17.19303L20.10004 -17.27303M20.11004 -17.18303L20.19004 -17.18303M20.15004 -17.14303L20.15004 -17.22303M20.16004 -17.18303L20.24004 -17.18303M20.20004 -17.14303L20.20004 -17.22303M20.11004 -17.23303L20.19004 -17.23303M20.15004 -17.19303L20.15004 -17.27303M20.16004 -17.23303L20.24004 -17.23303M20.20004 -17.19303L20.20004 -17.27303M20.21004 -17.18303L20.29004 -17.18303M20.25004 -17.14303L20.25004 -17.22303M20.26004 -17.18303L20.34004 -17.18303M20.30004 -17.14303L20.30004 -17.22303M20.21004 -17.23303L20.29004 -17.23303M20.25004 -17.19303L20.25004 -17.27303M20.26004 -17.23303L20.34004 -17.23303M20.30004 -17.19303L20.30004 -17.27303M20.36004 -17.23303L20.44004 -17.23303M20.40004 -17.19303L20.40004 -17.27303M20.45004 -17.23303L20.53004 -17.23303M20.49004 -17.19303L20.49004 -17.27303M20.47004 -17.19303L20.55004 -17.19303M20.51004 -17.15303L20.51004 -17.23303M20.63504 -17.20803L20.71504 -17.20803M20.67504 -17.16803L20.67504 -17.24803M19.92504 -17.33803L20.00504 -17.33803M19.96504 -17.29803L19.96504 -17.37803M20.06004 -17.28303L20.14004 -17.28303M20.10004 -17.24303L20.10004 -17.32303M20.06004 -17.33303L20.14004 -17.33303M20.10004 -17.29303L20.10004 -17.37303M20.11004 -17.28303L20.19004 -17.28303M20.15004 -17.24303L20.15004 -17.32303M20.16004 -17.28303L20.24004 -17.28303M20.20004 -17.24303L20.20004 -17.32303M20.11004 -17.33303L20.19004 -17.33303M20.15004 -17.29303L20.15004 -17.37303M20.16004 -17.33303L20.24004 -17.33303M20.20004 -17.29303L20.20004 -17.37303M20.21004 -17.28303L20.29004 -17.28303M20.25004 -17.24303L20.25004 -17.32303M20.26004 -17.28303L20.34004 -17.28303M20.30004 -17.24303L20.30004 -17.32303M20.21004 -17.33303L20.29004 -17.33303M20.25004 -17.29303L20.25004 -17.37303M20.26004 -17.33303L20.34004 -17.33303M20.30004 -17.29303L20.30004 -17.37303M20.36004 -17.33303L20.44004 -17.33303M20.40004 -17.29303L20.40004 -17.37303M20.45004 -17.33303L20.53004 -17.33303M20.49004 -17.29303L20.49004 -17.37303M19.75504 -17.40303L19.83504 -17.40303M19.79504 -17.36303L19.79504 -17.44303M19.92504 -17.44303L20.00504 -17.44303M19.96504 -17.40303L19.96504 -17.48303M20.06004 -17.38303L20.14004 -17.38303M20.10004 -17.34303L20.10004 -17.42303M20.16004 -17.38303L20.24004 -17.38303M20.20004 -17.34303L20.20004 -17.42303M20.11004 -17.38303L20.19004 -17.38303M20.15004 -17.34303L20.15004 -17.42303M20.21004 -17.38303L20.29004 -17.38303M20.25004 -17.34303L20.25004 -17.42303M20.26004 -17.38303L20.34004 -17.38303M20.30004 -17.34303L20.30004 -17.42303M20.39504 -17.38803L20.47504 -17.38803M20.43504 -17.34803L20.43504 -17.42803M20.41504 -17.43803L20.49504 -17.43803M20.45504 -17.39803L20.45504 -17.47803M19.75504 -17.47303L19.83504 -17.47303M19.79504 -17.43303L19.79504 -17.51303M19.95004 -17.49303L20.03004 -17.49303M19.99004 -17.45303L19.99004 -17.53303M19.99504 -17.51303L20.07504 -17.51303M20.03504 -17.47303L20.03504 -17.55303M20.07208 -17.55803L20.07095 -17.56116L20.06868 -17.56428L20.0664 -17.56584L20.06186 -17.56584L20.05958 -17.56428L20.05731 -17.56116L20.05618 -17.55803L20.05504 -17.55334L20.05504 -17.54553L20.05618 -17.54084L20.05731 -17.53772L20.05958 -17.53459L20.06186 -17.53303L20.0664 -17.53303L20.06868 -17.53459L20.07095 -17.53772L20.07208 -17.54084L20.07208 -17.54553M20.0664 -17.54553L20.07208 -17.54553M19.99504 -17.54303L20.07504 -17.54303M20.03504 -17.50303L20.03504 -17.58303M20.07208 -17.58803L20.07095 -17.59116L20.06868 -17.59428L20.0664 -17.59584L20.06186 -17.59584L20.05958 -17.59428L20.05731 -17.59116L20.05618 -17.58803L20.05504 -17.58334L20.05504 -17.57553L20.05618 -17.57084L20.05731 -17.56772L20.05958 -17.56459L20.06186 -17.56303L20.0664 -17.56303L20.06868 -17.56459L20.07095 -17.56772L20.07208 -17.57084L20.07208 -17.57553M20.0664 -17.57553L20.07208 -17.57553M20.05504 -17.46803L20.13504 -17.46803M20.09504 -17.42803L20.09504 -17.50803M20.05504 -17.53803L20.13504 -17.53803M20.09504 -17.49803L20.09504 -17.57803M20.16004 -17.46803L20.24004 -17.46803M20.20004 -17.42803L20.20004 -17.50803M20.16004 -17.53803L20.24004 -17.53803M20.20004 -17.49803L20.20004 -17.57803M20.26004 -17.53803L20.34004 -17.53803M20.30004 -17.49803L20.30004 -17.57803M20.26004 -17.46803L20.34004 -17.46803M20.30004 -17.42803L20.30004 -17.50803M20.36004 -17.46803L20.44004 -17.46803M20.40004 -17.42803L20.40004 -17.50803M20.36004 -17.53803L20.44004 -17.53803M20.40004 -17.49803L20.40004 -17.57803M20.63504 -17.50303L20.71504 -17.50303M20.67504 -17.46303L20.67504 -17.54303M19.76504 -17.59803L19.84504 -17.59803M19.80504 -17.55803L19.80504 -17.63803M19.80504 -17.61803L19.88504 -17.61803M19.84504 -17.57803L19.84504 -17.65803M19.80504 -17.57803L19.88504 -17.57803M19.84504 -17.53803L19.84504 -17.61803M19.91504 -17.57803L19.99504 -17.57803M19.95504 -17.53803L19.95504 -17.61803M19.91504 -17.61803L19.99504 -17.61803M19.95504 -17.57803L19.95504 -17.65803M19.95504 -17.61803L20.03504 -17.61803M19.99504 -17.57803L19.99504 -17.65803M19.99504 -17.61803L20.07504 -17.61803M20.03504 -17.57803L20.03504 -17.65803M20.07504 -17.61803L20.15504 -17.61803M20.11504 -17.57803L20.11504 -17.65803M20.03504 -17.61803L20.11504 -17.61803M20.07504 -17.57803L20.07504 -17.65803M20.11504 -17.61803L20.19504 -17.61803M20.15504 -17.57803L20.15504 -17.65803M20.15504 -17.61803L20.23504 -17.61803M20.19504 -17.57803L20.19504 -17.65803M20.19504 -17.61803L20.27504 -17.61803M20.23504 -17.57803L20.23504 -17.65803M20.27504 -17.61803L20.35504 -17.61803M20.31504 -17.57803L20.31504 -17.65803M20.23504 -17.61803L20.31504 -17.61803M20.27504 -17.57803L20.27504 -17.65803M20.35504 -17.61803L20.43504 -17.61803M20.39504 -17.57803L20.39504 -17.65803M20.39504 -17.61803L20.47504 -17.61803M20.43504 -17.57803L20.43504 -17.65803M20.31504 -17.61803L20.39504 -17.61803M20.35504 -17.57803L20.35504 -17.65803M20.47504 -17.57803L20.55504 -17.57803M20.51504 -17.53803L20.51504 -17.61803M20.47504 -17.61803L20.55504 -17.61803M20.51504 -17.57803L20.51504 -17.65803M20.43504 -17.61803L20.51504 -17.61803M20.47504 -17.57803L20.47504 -17.65803M20.59004 -17.57303L20.67004 -17.57303M20.63004 -17.53303L20.63004 -17.61303M20.59004 -17.61803L20.67004 -17.61803M20.63004 -17.57803L20.63004 -17.65803M20.63504 -17.57303L20.71504 -17.57303M20.67504 -17.53303L20.67504 -17.61303M20.63504 -17.61803L20.71504 -17.61803M20.67504 -17.57803L20.67504 -17.65803M31.49606 -17.18803L34.07606 -17.18803M31.49606 -16.94803L34.07606 -16.94803M31.49606 -16.70803L34.07606 -16.70803M31.49606 -16.46803L34.07606 -16.46803M31.49606 -16.22803L34.07606 -16.22803M31.49606 -15.98803L34.07606 -15.98803M31.49606 -15.74803L34.07606 -15.74803M31.49606 -17.18803L31.49606 -15.74803M32.33606 -17.18803L32.33606 -15.74803M32.69606 -17.18803L32.69606 -15.74803M33.05606 -17.18803L33.05606 -15.74803M33.59606 -17.18803L33.59606 -15.74803M34.07606 -17.18803L34.07606 -15.74803M33.76288 -17.08678L33.76288 -17.00803M33.74379 -17.08678L33.78197 -17.08678M33.82288 -17.08678L33.81743 -17.08303L33.81197 -17.07553L33.80924 -17.06803L33.80652 -17.05678L33.80652 -17.03803L33.80924 -17.02678L33.81197 -17.01928L33.81743 -17.01178L33.82288 -17.00803L33.83379 -17.00803L33.83924 -17.01178L33.8447 -17.01928L33.84743 -17.02678L33.85015 -17.03803L33.85015 -17.05678L33.84743 -17.06803L33.8447 -17.07553L33.83924 -17.08303L33.83379 -17.08678L33.82288 -17.08678M33.8747 -17.08678L33.8747 -17.00803L33.90743 -17.00803M31.59152 -16.82053L31.58879 -16.80928L31.58334 -16.80178L31.57515 -16.79803L31.57243 -16.79803L31.56424 -16.80178L31.55879 -16.80928L31.55606 -16.82053L31.55606 -16.82428L31.55879 -16.83553L31.56424 -16.84303L31.57243 -16.84678L31.57515 -16.84678L31.58334 -16.84303L31.58879 -16.83553L31.59152 -16.82053L31.59152 -16.80178L31.58879 -16.78303L31.58334 -16.77178L31.57515 -16.76803L31.5697 -16.76803L31.56152 -16.77178L31.55879 -16.77928M31.61879 -16.77553L31.61606 -16.77178L31.61879 -16.76803L31.62152 -16.77178L31.61879 -16.77553M31.6597 -16.84678L31.65152 -16.84303L31.64879 -16.83553L31.64879 -16.82803L31.65152 -16.82053L31.65697 -16.81678L31.66788 -16.81303L31.67606 -16.80928L31.68152 -16.80178L31.68424 -16.79428L31.68424 -16.78303L31.68152 -16.77553L31.67879 -16.77178L31.67061 -16.76803L31.6597 -16.76803L31.65152 -16.77178L31.64879 -16.77553L31.64606 -16.78303L31.64606 -16.79428L31.64879 -16.80178L31.65424 -16.80928L31.66243 -16.81303L31.67334 -16.81678L31.67879 -16.82053L31.68152 -16.82803L31.68152 -16.83553L31.67879 -16.84303L31.67061 -16.84678L31.6597 -16.84678M31.73606 -16.84678L31.70879 -16.79428L31.7497 -16.79428M31.73606 -16.84678L31.73606 -16.76803M32.43743 -16.82803L32.43743 -16.83178L32.44015 -16.83928L32.44288 -16.84303L32.44834 -16.84678L32.45924 -16.84678L32.4647 -16.84303L32.46743 -16.83928L32.47015 -16.83178L32.47015 -16.82428L32.46743 -16.81678L32.46197 -16.80553L32.4347 -16.76803L32.47288 -16.76803M32.49743 -16.83178L32.50288 -16.83553L32.51106 -16.84678L32.51106 -16.76803M32.56288 -16.84678L32.53561 -16.79428L32.57652 -16.79428M32.56288 -16.84678L32.56288 -16.76803M32.81606 -16.82803L32.93606 -16.82803M32.87606 -16.76803L32.87606 -16.88803M33.14243 -16.84678L33.16424 -16.80928L33.16424 -16.76803M33.18606 -16.84678L33.16424 -16.80928M33.21061 -16.84678L33.21061 -16.76803M33.21061 -16.84678L33.24606 -16.84678M33.21061 -16.80928L33.23243 -16.80928M33.21061 -16.76803L33.24606 -16.76803M33.30879 -16.83553L33.30334 -16.84303L33.29515 -16.84678L33.28424 -16.84678L33.27606 -16.84303L33.27061 -16.83553L33.27061 -16.82803L33.27334 -16.82053L33.27606 -16.81678L33.28152 -16.81303L33.29788 -16.80553L33.30334 -16.80178L33.30606 -16.79803L33.30879 -16.79053L33.30879 -16.77928L33.30334 -16.77178L33.29515 -16.76803L33.28424 -16.76803L33.27606 -16.77178L33.27061 -16.77928M33.67424 -16.83553L33.67424 -16.76803M33.6497 -16.80178L33.69879 -16.80178M33.77243 -16.86178L33.72334 -16.74178M33.79697 -16.80178L33.84606 -16.80178M33.88697 -16.84678L33.87879 -16.84303L33.87334 -16.83178L33.87061 -16.81303L33.87061 -16.80178L33.87334 -16.78303L33.87879 -16.77178L33.88697 -16.76803L33.89243 -16.76803L33.90061 -16.77178L33.90606 -16.78303L33.90879 -16.80178L33.90879 -16.81303L33.90606 -16.83178L33.90061 -16.84303L33.89243 -16.84678L33.88697 -16.84678M33.93606 -16.77553L33.93334 -16.77178L33.93606 -16.76803L33.93879 -16.77178L33.93606 -16.77553M33.9797 -16.84678L33.97152 -16.84303L33.96606 -16.83178L33.96334 -16.81303L33.96334 -16.80178L33.96606 -16.78303L33.97152 -16.77178L33.9797 -16.76803L33.98515 -16.76803L33.99334 -16.77178L33.99879 -16.78303L34.00152 -16.80178L34.00152 -16.81303L33.99879 -16.83178L33.99334 -16.84303L33.98515 -16.84678L33.9797 -16.84678M31.55879 -16.58803L31.55879 -16.59178L31.56152 -16.59928L31.56424 -16.60303L31.5697 -16.60678L31.58061 -16.60678L31.58606 -16.60303L31.58879 -16.59928L31.59152 -16.59178L31.59152 -16.58428L31.58879 -16.57678L31.58334 -16.56553L31.55606 -16.52803L31.59424 -16.52803M31.62424 -16.60678L31.65424 -16.60678L31.63788 -16.57678L31.64606 -16.57678L31.65152 -16.57303L31.65424 -16.56928L31.65697 -16.55803L31.65697 -16.55053L31.65424 -16.53928L31.64879 -16.53178L31.64061 -16.52803L31.63243 -16.52803L31.62424 -16.53178L31.62152 -16.53553L31.61879 -16.54303M31.68424 -16.53553L31.68152 -16.53178L31.68424 -16.52803L31.68697 -16.53178L31.68424 -16.53553M31.74424 -16.59553L31.74152 -16.60303L31.73334 -16.60678L31.72788 -16.60678L31.7197 -16.60303L31.71424 -16.59178L31.71152 -16.57303L31.71152 -16.55428L31.71424 -16.53928L31.7197 -16.53178L31.72788 -16.52803L31.73061 -16.52803L31.73879 -16.53178L31.74424 -16.53928L31.74697 -16.55053L31.74697 -16.55428L31.74424 -16.56553L31.73879 -16.57303L31.73061 -16.57678L31.72788 -16.57678L31.7197 -16.57303L31.71424 -16.56553L31.71152 -16.55428M31.77424 -16.58803L31.77424 -16.59178L31.77697 -16.59928L31.7797 -16.60303L31.78515 -16.60678L31.79606 -16.60678L31.80152 -16.60303L31.80424 -16.59928L31.80697 -16.59178L31.80697 -16.58428L31.80424 -16.57678L31.79879 -16.56553L31.77152 -16.52803L31.8097 -16.52803M32.48924 -16.58803L32.48924 -16.59178L32.49197 -16.59928L32.4947 -16.60303L32.50015 -16.60678L32.51106 -16.60678L32.51652 -16.60303L32.51924 -16.59928L32.52197 -16.59178L32.52197 -16.58428L32.51924 -16.57678L32.51379 -16.56553L32.48652 -16.52803L32.5247 -16.52803M32.81606 -16.58803L32.93606 -16.58803M32.87606 -16.52803L32.87606 -16.64803M32.93879 -16.66603L32.93661 -16.67203L32.93224 -16.67803L32.92788 -16.68103L32.91915 -16.68103L32.91479 -16.67803L32.91043 -16.67203L32.90824 -16.66603L32.90606 -16.65703L32.90606 -16.64203L32.90824 -16.63303L32.91043 -16.62703L32.91479 -16.62103L32.91915 -16.61803L32.92788 -16.61803L32.93224 -16.62103L32.93661 -16.62703L32.93879 -16.63303M33.14243 -16.60678L33.16424 -16.56928L33.16424 -16.52803M33.18606 -16.60678L33.16424 -16.56928M33.21061 -16.60678L33.21061 -16.52803M33.21061 -16.60678L33.24606 -16.60678M33.21061 -16.56928L33.23243 -16.56928M33.21061 -16.52803L33.24606 -16.52803M33.30879 -16.59553L33.30334 -16.60303L33.29515 -16.60678L33.28424 -16.60678L33.27606 -16.60303L33.27061 -16.59553L33.27061 -16.58803L33.27334 -16.58053L33.27606 -16.57678L33.28152 -16.57303L33.29788 -16.56553L33.30334 -16.56178L33.30606 -16.55803L33.30879 -16.55053L33.30879 -16.53928L33.30334 -16.53178L33.29515 -16.52803L33.28424 -16.52803L33.27606 -16.53178L33.27061 -16.53928M33.67424 -16.59553L33.67424 -16.52803M33.6497 -16.56178L33.69879 -16.56178M33.77243 -16.62178L33.72334 -16.50178M33.79697 -16.56178L33.84606 -16.56178M33.88697 -16.60678L33.87879 -16.60303L33.87334 -16.59178L33.87061 -16.57303L33.87061 -16.56178L33.87334 -16.54303L33.87879 -16.53178L33.88697 -16.52803L33.89243 -16.52803L33.90061 -16.53178L33.90606 -16.54303L33.90879 -16.56178L33.90879 -16.57303L33.90606 -16.59178L33.90061 -16.60303L33.89243 -16.60678L33.88697 -16.60678M33.93606 -16.53553L33.93334 -16.53178L33.93606 -16.52803L33.93879 -16.53178L33.93606 -16.53553M33.9797 -16.60678L33.97152 -16.60303L33.96606 -16.59178L33.96334 -16.57303L33.96334 -16.56178L33.96606 -16.54303L33.97152 -16.53178L33.9797 -16.52803L33.98515 -16.52803L33.99334 -16.53178L33.99879 -16.54303L34.00152 -16.56178L34.00152 -16.57303L33.99879 -16.59178L33.99334 -16.60303L33.98515 -16.60678L33.9797 -16.60678M31.55879 -16.34803L31.55879 -16.35178L31.56152 -16.35928L31.56424 -16.36303L31.5697 -16.36678L31.58061 -16.36678L31.58606 -16.36303L31.58879 -16.35928L31.59152 -16.35178L31.59152 -16.34428L31.58879 -16.33678L31.58334 -16.32553L31.55606 -16.28803L31.59424 -16.28803M31.62424 -16.36678L31.65424 -16.36678L31.63788 -16.33678L31.64606 -16.33678L31.65152 -16.33303L31.65424 -16.32928L31.65697 -16.31803L31.65697 -16.31053L31.65424 -16.29928L31.64879 -16.29178L31.64061 -16.28803L31.63243 -16.28803L31.62424 -16.29178L31.62152 -16.29553L31.61879 -16.30303M31.68424 -16.29553L31.68152 -16.29178L31.68424 -16.28803L31.68697 -16.29178L31.68424 -16.29553M31.74424 -16.35553L31.74152 -16.36303L31.73334 -16.36678L31.72788 -16.36678L31.7197 -16.36303L31.71424 -16.35178L31.71152 -16.33303L31.71152 -16.31428L31.71424 -16.29928L31.7197 -16.29178L31.72788 -16.28803L31.73061 -16.28803L31.73879 -16.29178L31.74424 -16.29928L31.74697 -16.31053L31.74697 -16.31428L31.74424 -16.32553L31.73879 -16.33303L31.73061 -16.33678L31.72788 -16.33678L31.7197 -16.33303L31.71424 -16.32553L31.71152 -16.31428M31.77424 -16.34803L31.77424 -16.35178L31.77697 -16.35928L31.7797 -16.36303L31.78515 -16.36678L31.79606 -16.36678L31.80152 -16.36303L31.80424 -16.35928L31.80697 -16.35178L31.80697 -16.34428L31.80424 -16.33678L31.79879 -16.32553L31.77152 -16.28803L31.8097 -16.28803M31.89697 -16.34053L31.92697 -16.28803M31.92697 -16.34053L31.89697 -16.28803M32.0497 -16.36678L32.02243 -16.36678L32.0197 -16.33303L32.02243 -16.33678L32.03061 -16.34053L32.03879 -16.34053L32.04697 -16.33678L32.05243 -16.32928L32.05515 -16.31803L32.05243 -16.31053L32.0497 -16.29928L32.04424 -16.29178L32.03606 -16.28803L32.02788 -16.28803L32.0197 -16.29178L32.01697 -16.29553L32.01424 -16.30303M32.11515 -16.36678L32.08788 -16.36678L32.08515 -16.33303L32.08788 -16.33678L32.09606 -16.34053L32.10424 -16.34053L32.11243 -16.33678L32.11788 -16.32928L32.12061 -16.31803L32.11788 -16.31053L32.11515 -16.29928L32.1097 -16.29178L32.10152 -16.28803L32.09334 -16.28803L32.08515 -16.29178L32.08243 -16.29553L32.0797 -16.30303M32.14788 -16.29553L32.14515 -16.29178L32.14788 -16.28803L32.15061 -16.29178L32.14788 -16.29553M32.17515 -16.35178L32.18061 -16.35553L32.18879 -16.36678L32.18879 -16.28803M32.21606 -16.34803L32.21606 -16.35178L32.21879 -16.35928L32.22152 -16.36303L32.22697 -16.36678L32.23788 -16.36678L32.24334 -16.36303L32.24606 -16.35928L32.24879 -16.35178L32.24879 -16.34428L32.24606 -16.33678L32.24061 -16.32553L32.21334 -16.28803L32.25152 -16.28803M32.51243 -16.36678L32.48515 -16.31428L32.52606 -16.31428M32.51243 -16.36678L32.51243 -16.28803M32.81606 -16.34803L32.93606 -16.34803M32.87606 -16.28803L32.87606 -16.40803M32.90606 -16.44103L32.90606 -16.37803M32.90606 -16.44103L32.93443 -16.44103M32.90606 -16.41103L32.92352 -16.41103M32.90606 -16.37803L32.93443 -16.37803M33.14243 -16.36678L33.16424 -16.32928L33.16424 -16.28803M33.18606 -16.36678L33.16424 -16.32928M33.21061 -16.36678L33.21061 -16.28803M33.21061 -16.36678L33.24606 -16.36678M33.21061 -16.32928L33.23243 -16.32928M33.21061 -16.28803L33.24606 -16.28803M33.30879 -16.35553L33.30334 -16.36303L33.29515 -16.36678L33.28424 -16.36678L33.27606 -16.36303L33.27061 -16.35553L33.27061 -16.34803L33.27334 -16.34053L33.27606 -16.33678L33.28152 -16.33303L33.29788 -16.32553L33.30334 -16.32178L33.30606 -16.31803L33.30879 -16.31053L33.30879 -16.29928L33.30334 -16.29178L33.29515 -16.28803L33.28424 -16.28803L33.27606 -16.29178L33.27061 -16.29928M33.67424 -16.35553L33.67424 -16.28803M33.6497 -16.32178L33.69879 -16.32178M33.77243 -16.38178L33.72334 -16.26178M33.79697 -16.32178L33.84606 -16.32178M33.88697 -16.36678L33.87879 -16.36303L33.87334 -16.35178L33.87061 -16.33303L33.87061 -16.32178L33.87334 -16.30303L33.87879 -16.29178L33.88697 -16.28803L33.89243 -16.28803L33.90061 -16.29178L33.90606 -16.30303L33.90879 -16.32178L33.90879 -16.33303L33.90606 -16.35178L33.90061 -16.36303L33.89243 -16.36678L33.88697 -16.36678M33.93606 -16.29553L33.93334 -16.29178L33.93606 -16.28803L33.93879 -16.29178L33.93606 -16.29553M33.9797 -16.36678L33.97152 -16.36303L33.96606 -16.35178L33.96334 -16.33303L33.96334 -16.32178L33.96606 -16.30303L33.97152 -16.29178L33.9797 -16.28803L33.98515 -16.28803L33.99334 -16.29178L33.99879 -16.30303L34.00152 -16.32178L34.00152 -16.33303L33.99879 -16.35178L33.99334 -16.36303L33.98515 -16.36678L33.9797 -16.36678M31.56152 -16.12678L31.59152 -16.12678L31.57515 -16.09678L31.58334 -16.09678L31.58879 -16.09303L31.59152 -16.08928L31.59424 -16.07803L31.59424 -16.07053L31.59152 -16.05928L31.58606 -16.05178L31.57788 -16.04803L31.5697 -16.04803L31.56152 -16.05178L31.55879 -16.05553L31.55606 -16.06303M31.65424 -16.12678L31.62697 -16.12678L31.62424 -16.09303L31.62697 -16.09678L31.63515 -16.10053L31.64334 -16.10053L31.65152 -16.09678L31.65697 -16.08928L31.6597 -16.07803L31.65697 -16.07053L31.65424 -16.05928L31.64879 -16.05178L31.64061 -16.04803L31.63243 -16.04803L31.62424 -16.05178L31.62152 -16.05553L31.61879 -16.06303M31.68697 -16.05553L31.68424 -16.05178L31.68697 -16.04803L31.6897 -16.05178L31.68697 -16.05553M31.74152 -16.12678L31.71424 -16.07428L31.75515 -16.07428M31.74152 -16.12678L31.74152 -16.04803M31.78515 -16.12678L31.81515 -16.12678L31.79879 -16.09678L31.80697 -16.09678L31.81243 -16.09303L31.81515 -16.08928L31.81788 -16.07803L31.81788 -16.07053L31.81515 -16.05928L31.8097 -16.05178L31.80152 -16.04803L31.79334 -16.04803L31.78515 -16.05178L31.78243 -16.05553L31.7797 -16.06303M32.46061 -16.12678L32.49061 -16.12678L32.47424 -16.09678L32.48243 -16.09678L32.48788 -16.09303L32.49061 -16.08928L32.49334 -16.07803L32.49334 -16.07053L32.49061 -16.05928L32.48515 -16.05178L32.47697 -16.04803L32.46879 -16.04803L32.46061 -16.05178L32.45788 -16.05553L32.45515 -16.06303M32.53152 -16.12678L32.52334 -16.12303L32.52061 -16.11553L32.52061 -16.10803L32.52334 -16.10053L32.52879 -16.09678L32.5397 -16.09303L32.54788 -16.08928L32.55334 -16.08178L32.55606 -16.07428L32.55606 -16.06303L32.55334 -16.05553L32.55061 -16.05178L32.54243 -16.04803L32.53152 -16.04803L32.52334 -16.05178L32.52061 -16.05553L32.51788 -16.06303L32.51788 -16.07428L32.52061 -16.08178L32.52606 -16.08928L32.53424 -16.09303L32.54515 -16.09678L32.55061 -16.10053L32.55334 -16.10803L32.55334 -16.11553L32.55061 -16.12303L32.54243 -16.12678L32.53152 -16.12678M32.81606 -16.10803L32.93606 -16.10803M32.87606 -16.04803L32.87606 -16.16803M32.90606 -16.20103L32.90606 -16.13803M32.90606 -16.20103L32.93443 -16.20103M32.90606 -16.17103L32.92352 -16.17103M33.14243 -16.12678L33.16424 -16.08928L33.16424 -16.04803M33.18606 -16.12678L33.16424 -16.08928M33.21061 -16.12678L33.21061 -16.04803M33.21061 -16.12678L33.24606 -16.12678M33.21061 -16.08928L33.23243 -16.08928M33.21061 -16.04803L33.24606 -16.04803M33.30879 -16.11553L33.30334 -16.12303L33.29515 -16.12678L33.28424 -16.12678L33.27606 -16.12303L33.27061 -16.11553L33.27061 -16.10803L33.27334 -16.10053L33.27606 -16.09678L33.28152 -16.09303L33.29788 -16.08553L33.30334 -16.08178L33.30606 -16.07803L33.30879 -16.07053L33.30879 -16.05928L33.30334 -16.05178L33.29515 -16.04803L33.28424 -16.04803L33.27606 -16.05178L33.27061 -16.05928M33.67424 -16.11553L33.67424 -16.04803M33.6497 -16.08178L33.69879 -16.08178M33.77243 -16.14178L33.72334 -16.02178M33.79697 -16.08178L33.84606 -16.08178M33.88697 -16.12678L33.87879 -16.12303L33.87334 -16.11178L33.87061 -16.09303L33.87061 -16.08178L33.87334 -16.06303L33.87879 -16.05178L33.88697 -16.04803L33.89243 -16.04803L33.90061 -16.05178L33.90606 -16.06303L33.90879 -16.08178L33.90879 -16.09303L33.90606 -16.11178L33.90061 -16.12303L33.89243 -16.12678L33.88697 -16.12678M33.93606 -16.05553L33.93334 -16.05178L33.93606 -16.04803L33.93879 -16.05178L33.93606 -16.05553M33.9797 -16.12678L33.97152 -16.12303L33.96606 -16.11178L33.96334 -16.09303L33.96334 -16.08178L33.96606 -16.06303L33.97152 -16.05178L33.9797 -16.04803L33.98515 -16.04803L33.99334 -16.05178L33.99879 -16.06303L34.00152 -16.08178L34.00152 -16.09303L33.99879 -16.11178L33.99334 -16.12303L33.98515 -16.12678L33.9797 -16.12678M31.55606 -15.87178L31.56152 -15.87553L31.5697 -15.88678L31.5697 -15.80803M31.59697 -15.86803L31.59697 -15.87178L31.5997 -15.87928L31.60243 -15.88303L31.60788 -15.88678L31.61879 -15.88678L31.62424 -15.88303L31.62697 -15.87928L31.6297 -15.87178L31.6297 -15.86428L31.62697 -15.85678L31.62152 -15.84553L31.59424 -15.80803L31.63243 -15.80803M32.4797 -15.87178L32.48515 -15.87553L32.49334 -15.88678L32.49334 -15.80803M32.51788 -15.87178L32.52334 -15.87553L32.53152 -15.88678L32.53152 -15.80803M32.81606 -15.86803L32.93606 -15.86803M32.87606 -15.80803L32.87606 -15.92803M32.93879 -15.94603L32.93661 -15.95203L32.93224 -15.95803L32.92788 -15.96103L32.91915 -15.96103L32.91479 -15.95803L32.91043 -15.95203L32.90824 -15.94603L32.90606 -15.93703L32.90606 -15.92203L32.90824 -15.91303L32.91043 -15.90703L32.91479 -15.90103L32.91915 -15.89803L32.92788 -15.89803L32.93224 -15.90103L32.93661 -15.90703L32.93879 -15.91303L32.93879 -15.92203M32.92788 -15.92203L32.93879 -15.92203M33.14243 -15.88678L33.16424 -15.84928L33.16424 -15.80803M33.18606 -15.88678L33.16424 -15.84928M33.21061 -15.88678L33.21061 -15.80803M33.21061 -15.88678L33.24606 -15.88678M33.21061 -15.84928L33.23243 -15.84928M33.21061 -15.80803L33.24606 -15.80803M33.30879 -15.87553L33.30334 -15.88303L33.29515 -15.88678L33.28424 -15.88678L33.27606 -15.88303L33.27061 -15.87553L33.27061 -15.86803L33.27334 -15.86053L33.27606 -15.85678L33.28152 -15.85303L33.29788 -15.84553L33.30334 -15.84178L33.30606 -15.83803L33.30879 -15.83053L33.30879 -15.81928L33.30334 -15.81178L33.29515 -15.80803L33.28424 -15.80803L33.27606 -15.81178L33.27061 -15.81928M33.67424 -15.87553L33.67424 -15.80803M33.6497 -15.84178L33.69879 -15.84178M33.77243 -15.90178L33.72334 -15.78178M33.79697 -15.84178L33.84606 -15.84178M33.88697 -15.88678L33.87879 -15.88303L33.87334 -15.87178L33.87061 -15.85303L33.87061 -15.84178L33.87334 -15.82303L33.87879 -15.81178L33.88697 -15.80803L33.89243 -15.80803L33.90061 -15.81178L33.90606 -15.82303L33.90879 -15.84178L33.90879 -15.85303L33.90606 -15.87178L33.90061 -15.88303L33.89243 -15.88678L33.88697 -15.88678M33.93606 -15.81553L33.93334 -15.81178L33.93606 -15.80803L33.93879 -15.81178L33.93606 -15.81553M33.9797 -15.88678L33.97152 -15.88303L33.96606 -15.87178L33.96334 -15.85303L33.96334 -15.84178L33.96606 -15.82303L33.97152 -15.81178L33.9797 -15.80803L33.98515 -15.80803L33.99334 -15.81178L33.99879 -15.82303L34.00152 -15.84178L34.00152 -15.85303L33.99879 -15.87178L33.99334 -15.88303L33.98515 -15.88678L33.9797 -15.88678"></path><path stroke-width="0.005" fill="none" d="M19.72441 -17.64803A0.03937 0.03937 0 0 0 19.68504 -17.60866M19.72441 -17.64803L20.74567 -17.64803M20.78504 -17.60866A0.03937 0.03937 0 0 0 20.74567 -17.64803M20.78504 -17.60866L20.78504 -15.7874M20.74567 -15.74803A0.03937 0.03937 0 0 0 20.78504 -15.7874M20.74567 -15.74803L19.72441 -15.74803M19.68504 -15.7874A0.03937 0.03937 0 0 0 19.72441 -15.74803M19.68504 -15.7874L19.68504 -17.60866M19.43004 -15.74803L19.43004 -16.64928M19.43004 -15.74803L19.42004 -15.79803L19.44004 -15.79803L19.43004 -15.74803M19.43004 -17.64803L19.43004 -16.74678M19.43004 -17.64803L19.44004 -17.59803L19.42004 -17.59803L19.43004 -17.64803M19.69504 -15.74803L19.41004 -15.74803M19.69004 -17.64803L19.41004 -17.64803M19.36299 -16.71209L19.35163 -16.69022L19.36868 -16.69022M19.36299 -16.71209L19.36299 -16.67928M19.38458 -16.71209L19.38118 -16.71053L19.38004 -16.70741L19.38004 -16.70428L19.38118 -16.70116L19.38345 -16.69959L19.38799 -16.69803L19.3914 -16.69647L19.39368 -16.69334L19.39481 -16.69022L19.39481 -16.68553L19.39368 -16.68241L19.39254 -16.68084L19.38913 -16.67928L19.38458 -16.67928L19.38118 -16.68084L19.38004 -16.68241L19.3789 -16.68553L19.3789 -16.69022L19.38004 -16.69334L19.38231 -16.69647L19.38572 -16.69803L19.39027 -16.69959L19.39254 -16.70116L19.39368 -16.70428L19.39368 -16.70741L19.39254 -16.71053L19.38913 -16.71209L19.38458 -16.71209M19.40618 -16.68241L19.40504 -16.68084L19.40618 -16.67928L19.40731 -16.68084L19.40618 -16.68241M19.41868 -16.70428L19.41868 -16.70584L19.41981 -16.70897L19.42095 -16.71053L19.42322 -16.71209L19.42777 -16.71209L19.43004 -16.71053L19.43118 -16.70897L19.43231 -16.70584L19.43231 -16.70272L19.43118 -16.69959L19.4289 -16.69491L19.41754 -16.67928L19.43345 -16.67928M19.44368 -16.70116L19.44368 -16.67928M19.44368 -16.69491L19.44708 -16.69959L19.44936 -16.70116L19.45277 -16.70116L19.45504 -16.69959L19.45618 -16.69491L19.45618 -16.67928M19.45618 -16.69491L19.45958 -16.69959L19.46186 -16.70116L19.46527 -16.70116L19.46754 -16.69959L19.46868 -16.69491L19.46868 -16.67928M19.4789 -16.70116L19.4789 -16.67928M19.4789 -16.69491L19.48231 -16.69959L19.48458 -16.70116L19.48799 -16.70116L19.49027 -16.69959L19.4914 -16.69491L19.4914 -16.67928M19.4914 -16.69491L19.49481 -16.69959L19.49708 -16.70116L19.50049 -16.70116L19.50277 -16.69959L19.5039 -16.69491L19.5039 -16.67928M19.68504 -15.55803L20.12777 -15.55803M19.68504 -15.55803L19.73504 -15.56803L19.73504 -15.54803L19.68504 -15.55803M20.78504 -15.55803L20.34231 -15.55803M20.78504 -15.55803L20.73504 -15.54803L20.73504 -15.56803L20.78504 -15.55803M19.68504 -15.74803L19.68504 -15.53803M20.78504 -15.77303L20.78504 -15.53803M20.1589 -15.56428L20.1589 -15.56584L20.16004 -15.56897L20.16118 -15.57053L20.16345 -15.57209L20.16799 -15.57209L20.17027 -15.57053L20.1714 -15.56897L20.17254 -15.56584L20.17254 -15.56272L20.1714 -15.55959L20.16913 -15.55491L20.15777 -15.53928L20.17368 -15.53928M20.19981 -15.57209L20.18845 -15.53928M20.1839 -15.57209L20.19981 -15.57209M20.21118 -15.54241L20.21004 -15.54084L20.21118 -15.53928L20.21231 -15.54084L20.21118 -15.54241M20.23731 -15.56116L20.23618 -15.55647L20.2339 -15.55334L20.23049 -15.55178L20.22936 -15.55178L20.22595 -15.55334L20.22368 -15.55647L20.22254 -15.56116L20.22254 -15.56272L20.22368 -15.56741L20.22595 -15.57053L20.22936 -15.57209L20.23049 -15.57209L20.2339 -15.57053L20.23618 -15.56741L20.23731 -15.56116L20.23731 -15.55334L20.23618 -15.54553L20.2339 -15.54084L20.23049 -15.53928L20.22822 -15.53928L20.22481 -15.54084L20.22368 -15.54397M20.24754 -15.56116L20.24754 -15.53928M20.24754 -15.55491L20.25095 -15.55959L20.25322 -15.56116L20.25663 -15.56116L20.2589 -15.55959L20.26004 -15.55491L20.26004 -15.53928M20.26004 -15.55491L20.26345 -15.55959L20.26572 -15.56116L20.26913 -15.56116L20.2714 -15.55959L20.27254 -15.55491L20.27254 -15.53928M20.28277 -15.56116L20.28277 -15.53928M20.28277 -15.55491L20.28618 -15.55959L20.28845 -15.56116L20.29186 -15.56116L20.29413 -15.55959L20.29527 -15.55491L20.29527 -15.53928M20.29527 -15.55491L20.29868 -15.55959L20.30095 -15.56116L20.30436 -15.56116L20.30663 -15.55959L20.30777 -15.55491L20.30777 -15.53928"></path></svg>